<?xml version="1.0" encoding="utf-8"?>
<!-- Generator: Adobe Illustrator 23.0.3, SVG Export Plug-In . SVG Version: 6.00 Build 0)  -->
<svg version="1.1" id="Layer_1" xmlns="http://www.w3.org/2000/svg" xmlns:xlink="http://www.w3.org/1999/xlink" x="0px" y="0px"
	 viewBox="0 0 1200 1200" enable-background="new 0 0 1200 1200" xml:space="preserve">
<g>
	<g>
		<g>
			<path fill="#661B1B" d="M458.457,118.775c-1.542-3.627-3.207-7.202-4.991-10.715c-4.642-9.139-9.472-19.843-17.823-26.188
				c-17.766-13.497-41.535-13.629-56.851,0.344c-15.617,14.238-24.041,33.947-13.37,56.979c4.573,9.872,8.688,19.003,16.02,27.055
				c2.169,2.383,4.348,4.774,6.838,6.82c7.922,6.509,18.298,9.016,28.292,11.301c11.067,2.53,23.886-7.071,33.348-12.528
				c5.05-2.913,13.279-6.377,16.426-11.307c3.28-5.139,1.654-12.598,0.227-18.03C464.447,134.413,461.73,126.476,458.457,118.775z"
				/>
		</g>
		<g>
			<path fill="#BA796C" d="M401.151,94.253c-8.232,1.233-14.899,8.446-16.548,16.604s1.268,16.851,6.669,23.184
				c0.518,0.607,1.172,1.245,1.968,1.199c0.522-0.031,0.973-0.355,1.392-0.668c6.504-4.867,13.19-9.515,19.35-14.822
				c2.073-1.786,14.527-11.761,13.724-14.405c-0.142-0.467-0.461-0.858-0.779-1.228C421.541,97.854,409.502,93.003,401.151,94.253z"
				/>
		</g>
		<g>
			<path fill="#661B1B" d="M183.281,933.071c-3.689,6.778-0.223,12.937-0.914,18.863c-2.393,3.73-6.376,3.407-9.877,4.282
				c-3.578,0.894-7.258,1.585-10.655,2.955c-8.13,3.279-11.19,9.474-8.806,17.786c1.179,4.109,2.989,8.037,4.635,12.363
				c-2.891,6.661-11.262,7.383-13.127,10.783c-4.77,7.799-4.25,13.027-1.733,18.396c4.865,10.378,12.383,18.28,22.019,24.327
				c19.554,12.272,41.122,16.011,63.765,14.908c5.525-0.269,11.102-0.916,16.502-2.094c28.835-6.291,48.291-23.657,58.218-51.24
				c5.859-16.282,1.409-30.422-11.634-41.552c-5.684-4.851-12.087-8.612-18.99-11.325c-17.766-6.984-35.593-13.818-53.488-20.464
				c-6.961-2.585-14.282-3.794-21.773-3.623C191.65,927.567,186.531,929.126,183.281,933.071z"/>
		</g>
		<g>
			<path fill="#661B1B" d="M539.029,1029.727c16.003,17.279,38.927,26.866,62.12,30.925c18.941,3.324,38.502,3.479,57.675,2.59
				c16.429-0.773,27.833,4.91,43.76,8.853c18.014,4.445,36.299,7.229,54.661,9.742c13.452,1.855,26.905,3.672,40.396,5.334
				c25.706,3.209,51.413,6.881,77.236,9.278c32.046,2.977,64.17,2.165,96.255,0c0.426-0.039,0.812-0.039,1.237-0.116
				c4.484-0.387,8.853-1.353,12.834-1.972c8.659-5.296,13.065-11.211,17.125-17.512c17.086-26.673,30.268-55.163,38.695-85.779
				c3.904-14.303,7.654-28.645,8.62-43.527c0.696-10.553,0.464-21.068-2.667-31.235c-0.426-1.353-0.889-2.628-1.392-3.866
				c-7.383-17.975-24.431-25.668-43.72-19.212c-13.221,4.446-24.276,12.177-32.549,23.542c-2.512,3.44-4.793,7.074-6.649,9.818
				c-5.373,2.977-9.277,0.696-13.336-0.657c-43.489-14.264-87.673-25.706-132.979-32.626c-28.954-4.407-62.701-0.503-90.031-9.239
				c-31.39-10.012-62.623-19.058-95.134-24.779c-10.747-1.894-21.763-3.479-32.432-1.276c-9.394,1.894-17.976,6.688-25.9,12.099
				c-25.475,17.434-46.002,43.102-53.656,73.022C511.582,973.057,518.037,1007.074,539.029,1029.727z"/>
		</g>
		<g>
			<path fill="#FBB93E" d="M531.899,94.296c-3.33,0.788-6.963,1.507-10.515,2.513c-11.77,3.333-20.773,10.23-27.475,20.558
				c-11.403,17.569-16.63,37.166-18.692,57.582c-3.641,36.052,3.482,70.035,21.775,101.464
				c10.358,17.796,25.069,30.304,45.096,36.081c2.366,0.682,4.733,1.608,7.152,1.815c22.228,1.91,44.399,2.417,66.205-3.577
				c38.363-10.546,48.938-50.435,35.706-76.218c-3.368-6.562-7.052-13.043-11.305-19.055c-13.2-18.658-27.614-36.38-42.537-53.69
				c-9.27-10.753-18.475-21.563-27.649-32.399c-5.184-6.123-10.424-12.218-13.96-19.532
				C551.313,100.766,544.059,95.704,531.899,94.296z"/>
		</g>
		<g>
			<path fill="#661B1B" d="M605.576,115.327c1.542-3.627,3.207-7.202,4.991-10.715c4.642-9.139,9.472-19.843,17.823-26.188
				c17.766-13.497,41.535-13.629,56.851,0.344c15.617,14.238,24.041,33.947,13.37,56.979c-4.573,9.872-8.688,19.003-16.02,27.055
				c-2.169,2.383-4.348,4.774-6.838,6.82c-7.922,6.509-18.298,9.016-28.292,11.301c-11.067,2.53-23.886-7.071-33.348-12.528
				c-5.05-2.913-13.279-6.377-16.426-11.307c-3.28-5.139-1.653-12.598-0.227-18.03C599.586,130.964,602.303,123.027,605.576,115.327
				z"/>
		</g>
		<g>
			<path fill="#661B1B" d="M252.08,584.983c11.018-34.752,22.074-69.504,33.671-104.063
				c18.091-53.888,34.365-108.316,48.011-163.517c8.693-35.177,15.487-77.36,32.431-109.627
				c15.421-29.367,30.911-59.4,50.105-86.716c7.661-10.903,14.768-22.727,26.265-29.218c12.896-7.279,27.145-13.81,41.649-17.009
				c10.018-2.231,20.267-3.225,30.502-3.076c20.211,86.264,110.371,145.167,198.926,170.052c4.147,16.287,7.136,32.87,9.045,49.772
				c2.281,20.333,2.822,40.705,3.982,61.039c2.591,45.692,3.75,91.423-1.43,137.037c-2.783,24.586-5.992,49.133-15.385,72.288
				c-2.126,5.257-3.015,10.592-3.131,16.236c-0.441,27.33-4.366,54.018-10.596,80.25c-153.791,7.045-307.277,9.731-458.092-12.046
				C241.515,625.662,245.714,605.079,252.08,584.983z"/>
		</g>
		<g>
			<path fill="#A15542" d="M233.448,675.633c1.458-9.758,2.949-19.518,4.585-29.249c150.814,21.777,304.301,19.091,458.092,12.046
				c-3.595,15.14-7.947,30.13-12.869,44.997c-12.641,38.154-28.489,75.071-46.659,110.983
				c-16.854,33.206-35.872,64.866-61.231,92.428c-3.209,3.479-7.499,6.649-7.731,12.1c1.005,0.812,1.817,2.087,2.822,2.242
				c6.726,1.044,13.414,2.397,20.179,2.706c22.923,1.005,45.499,4.485,67.997,8.582c41.091,7.461,79.825,21.57,116.24,42.058
				c2.629,1.469,5.064,3.517,8.968,2.435c1.585-2.822,3.286-6.108,5.18-9.2c5.721-9.239,13.955-15.695,23.58-20.295
				c13.492-6.456,26.905-3.015,36.299,8.891c0.579,0.734,1.159,1.507,1.701,2.28c3.402,4.832,5.876,10.128,7.615,15.772
				c2.358,7.654,4.098,15.463,4.6,23.58c2.048,34.095-5.528,66.219-19.251,97.183c-8.349,18.864-21.957,32.626-39.352,43.102
				c-1.314,0.812-2.667,1.546-4.059,2.203c-27.176,13.685-64.827,7.964-94.283,8.814c-58.513,1.689-117.105,0.33-175.494-3.791
				c-24.808-1.751-51.277-1.288-75.431-5.758c-29.424-5.446-58.613-13.824-87.742-20.694c-19.537-4.607-40.484-9.569-59.148-16.919
				c-18.336-7.221-32.807-24.765-46.002-38.926c-21.106-22.653-35.294-48.823-40.744-79.71c-2.512-14.071-3.401-28.258-4.832-42.367
				c-1.933-19.019-3.44-38.154-3.866-57.289c-1.044-47.084,4.601-93.742,11.134-140.285
				C226.915,720.899,230.046,698.247,233.448,675.633z"/>
		</g>
		<g>
			<path fill="#FFC94F" d="M192.975,866.635c3.401,4.871,22.265,6.185,28.103,7.886c30.384,8.852,59.724,19.792,90.766,26.634
				c14.419,3.17,29.146,5.45,43.875,6.881c20.295,2.01,40.473,4.677,60.729,7.112c22.074,2.668,44.339,3.711,66.529,5.219
				c14.766,1.005,29.611,1.508,44.415,2.435c24.741,1.508,49.403,0.309,73.989-2.474c5.489-0.619,10.978-1.778,16.352-3.17
				c6.533-1.701,12.95-3.904,18.594-5.605c24.74-22.691,39.662-49.944,48.243-80.985c9.393-34.018,14.766-68.732,18.941-103.755
				c3.518-29.533,5.296-59.299,5.142-89.064c-0.155-23.31,5.45-42.213,8.543-64.982c4.253-31.196,10.631-62.043,15.076-93.201
				c3.924-27.501,11.399-58.172-5.044-82.873c-16.865,13.605-33.833,27.28-52.755,37.836
				c-60.907,33.978-140.668,30.93-198.804-7.597c-6.61-4.38-13.245-9.299-21.057-10.658c-5.952-1.035-12.034,0.107-18.027,0.866
				c-21.819,2.764-44.483,0.301-64.618-8.55c-20.134-8.85-37.582-24.28-47.483-43.919c-1.017-2.017-2.088-4.216-4.098-5.246
				c-5.657-2.898-8.616,8.868-10.089,11.979c-39.855,84.465-63.243,168.736-78.859,261.241
				c-10.669,63.242-21.339,126.484-32.008,189.688c-0.039,0.232-0.077,0.503-0.155,0.773c-0.387,2.088-1.199,5.141-2.126,8.698
				C194.019,843.827,189.418,861.532,192.975,866.635z"/>
		</g>
		<g>
			<g>
				<path fill="#EBAE26" d="M197.149,831.805c50.757,24.508,107.582,34.946,163.285,44.03
					c77.816,12.718,159.111,25.32,233.448-8.659c5.064-2.319,0.657-9.819-4.407-7.538c-75.728,34.675-160.347,18.98-239.206,5.76
					c-51.762-8.62-104.025-19.251-150.993-42.291C198.888,825.195,198.077,828.249,197.149,831.805z"/>
			</g>
		</g>
		<g>
			<path fill="#A15542" d="M422.444,102.511c7.848-7.46,16.525-14.085,26.408-18.418c8.519-3.735,17.713-5.674,26.408-8.977
				c1.839-0.699,3.725-1.507,5.01-2.996c2.429-2.813,2.951-8.754,5.227-12.262c2.282-3.517,5.044-6.853,9.313-7.877
				c7.556-1.813,15.276,7.095,12.409,14.316c2.782-4.769,5.683-9.674,10.122-12.957c4.439-3.283,10.864-4.539,15.478-1.507
				c4.614,3.032,5.417,11.05,0.653,13.841c12.188-7.863,25.358-16.017,39.858-15.663c3.75,0.092,8.019,1.137,9.718,4.482
				c1.114,2.192,0.81,4.826,0.224,7.214c-1.844,7.514-6.292,14.362-12.407,19.101c35.731,3.672,64.052,17.848,89.25,43.182
				c27.437,27.584,46.124,63.249,55.952,100.893c4.902,18.776,7.705,38.154,14.421,56.36c6.296,17.068,15.878,32.69,24.976,48.444
				c2.57,4.45,5.196,9.362,4.433,14.444c-1.65,10.985-17.192,13.505-27.279,8.851c-10.086-4.655-18.204-13.471-28.985-16.148
				c5.793,9.608,15.451,23.793,10.532,35.339c-3.531,8.289-13.525,11.77-22.526,12.159c-11.877,0.513-23.89-2.815-33.81-9.367
				c3.794,12.572,4.377,27.811-4.805,37.2c-7.785,7.961-20.775,9.123-31.099,4.953c-10.324-4.17-18.279-12.766-24.326-22.115
				c-3.787,18.223-25.334,29.178-43.445,24.891s-31.664-20.637-36.689-38.558c-3.961,14.147-19.047,24.252-33.637,22.532
				c-14.59-1.721-26.911-15.058-27.472-29.738c0.199,5.201-14.707,11.867-18.514,13.161c-7.447,2.531-17.702,3.487-25.222,0.565
				c-15.232-5.918-22.107-26.89-17.644-41.696c-10.238,5.847-23.509,7.985-33.708,2.07c-10.199-5.915-14.523-21.532-6.395-30.073
				c-12.263,6.249-28.486,12.049-38.506,2.614c-8.313-7.828-6.635-21.442-2.728-32.171c7.199-19.77,19.576-37.178,28.984-55.998
				c21.893-43.797,40.166-89.337,74.845-125.151C419.09,105.775,420.748,104.123,422.444,102.511z"/>
		</g>
		<g>
			<path fill="#FFFFFF" d="M819.296,357.281c-5.013-3.286-9.565-5.395-12.212-4.375c-2.376,0.918-3.822,3.278-5.09,5.487
				c-13.494,23.502-26.655,47.515-35.172,73.344c-8.565,25.974-8.491,50.589-7.965,77.637c0.263,13.553-2.514,19.974,8.633,28.996
				c11.617,9.402,24.829,17.136,38.095,23.941c25.777,13.223,53.357,22.56,81.096,30.698c23.182,6.801,46.788,12.866,70.915,14.119
				c15.039,0.781,30.692-0.469,43.958-7.595c10.556-5.67,18.885-14.661,26.787-23.669c9.667-11.02,28.233-32.772,21.263-49.055
				c-3.479-8.128-16.021-15.817-22.573-21.525c-8.775-7.645-17.733-15.08-26.834-22.333c-36.773-29.302-75.878-55.53-115.642-80.568
				c-14.304-9.007-28.495-18.194-42.57-27.554C838.1,372.247,828.004,362.989,819.296,357.281z"/>
		</g>
		<g>
			<path fill="#FFECD9" d="M885.566,474.451c-79.548-31.567-165.396-51.569-250.598-43.506c1.629,1.065,3.258,2.13,4.887,3.195
				c-5.433-0.396-10.917-0.086-16.271,0.92c-0.143,4.353-3.976,7.514-7.193,10.45c-8.042,7.34-13.977,20.26-7.083,28.688
				c2.883,3.524,7.339,5.286,11.597,6.901c95.247,36.111,191.741,68.933,289.252,98.388c24.41,7.374,89.309,28.376,102.773-6.636
				c11.984-31.162-44.594-58.145-65.195-69.551C927.731,492.224,906.807,482.88,885.566,474.451z"/>
		</g>
		<g>
			<path fill="#353A57" d="M1042.095,528.518c-14.614,17.899-20.819,19.434-58.335,15.71c-5.03,2.057-2.736,7.647-5.264,10.914
				c-1.166,0.245-2.488,0.981-3.468,0.663c-51.1-16.571-102.788-31.238-153.539-48.993c-43.719-15.295-88.531-27.268-133.39-38.878
				c-20.926-5.415-41.787-11.088-62.767-16.28c-8.378-2.073-16.957-3.491-25.523-4.597c-6.71-0.866-13.683-1.453-19.935,4.771
				c-0.479,1.419-1.772,3.678-1.952,6.021c-2.691,35.124-4.462,70.275-3.726,105.533c0.839,40.155,1.287,80.318,2,120.476
				c0.263,14.822,0.81,29.639,1.21,44.458c1.119,41.465-2.629,82.727-5.369,124.022c-0.755,11.38,0.126,22.128,6.163,31.534
				c5.031,3.936,10.513,4.994,16.04,5.63c14.18,1.631,27.978,5.12,41.603,9.074c34.573,10.032,69.788,15.967,105.688,18.167
				c44.398,2.722,88.782,5.67,133.188,8.252c6.722,0.391,13.562-0.372,20.287-1.137c8.498-0.967,14.879-5.608,19.509-12.728
				c7.106-10.927,12.924-22.527,17.342-34.761c7.971-22.072,15.842-44.184,23.417-66.394
				c13.558-39.749,26.567-79.686,40.387-119.343c8.738-25.074,18.528-49.782,27.85-74.653c2.167-5.782,4.585-11.482,6.479-17.352
				c4.382-13.579,9.288-26.775,18.533-38.074c3.452-4.219,5.489-9.63,7.982-14.592c2.904-5.778,3.412-11.804,1.218-17.971
				c-2.502-5.15-6.831-8.698-10.887-12.499c-13.556-12.704-28.183-24.071-43.171-35.019c-15.968-11.664-31.944-23.331-47.578-35.434
				c-30.324-23.475-62.052-44.966-93.472-66.896c-11.648-8.13-23.315-16.237-35.045-24.248c-4.559-3.113-9.161-6.401-15.107-5.261
				c-3.412,2.489-2.55,5.37-1.071,8.247c2.366,4.602,6.697,7.207,10.694,10.052c17.621,12.542,35.422,24.834,52.968,37.48
				c17.039,12.28,34.117,24.534,50.689,37.428c22.463,17.477,45.369,34.256,69.722,49.023c14.325,8.687,27.076,19.477,39.756,30.33
				C1037.504,523.145,1039.368,525.583,1042.095,528.518z"/>
		</g>
		<g>
			<path fill="#A15542" d="M576.231,701.982c31.994-5.324,64.971-17.23,94.472-29.849c4.571-1.955,9.713-3.689,14.417-2.079
				c4.704,1.61,7.781,8.137,4.378,11.761c3.395-5.178,10.846-6.934,16.491-4.39s9.205,8.767,9.237,14.959
				c0.032,6.192-3.161,12.164-7.876,16.178c7.277-0.856,13.709,6.235,14.268,13.541c0.559,7.306-3.325,14.277-8.188,19.758
				c-39.937,45.019-94.789,68.749-151.06,87.217c-25.605,8.404-52.085,16.04-79.007,14.824
				c-30.361-1.372-59.668-14.242-82.944-33.784c-23.275-19.542-40.716-45.483-52.49-73.501
				c-1.478-3.516,111.556-37.629,121.904-41.077c10.969-3.655,21.839-9.392,32.841-12.461c12.503-3.488,12.293,7.831,21.969,13.655
				C539.219,705.507,560.061,704.673,576.231,701.982z"/>
		</g>
		<g>
			<path fill="#BA796C" d="M662.883,90.804c8.232,1.233,14.899,8.446,16.548,16.604s-1.268,16.851-6.669,23.184
				c-0.518,0.607-1.172,1.245-1.968,1.199c-0.522-0.031-0.973-0.355-1.392-0.668c-6.504-4.867-13.19-9.515-19.35-14.822
				c-2.073-1.786-14.527-11.761-13.724-14.405c0.142-0.467,0.461-0.858,0.779-1.228C642.493,94.405,654.532,89.555,662.883,90.804z"
				/>
		</g>
		<g>
			<path fill="#BA796C" d="M584.6,209.205c20.145,0.491,40.085,7.866,55.645,20.683c5.874,4.839,11.234,10.564,14.298,17.531
				c10.606,24.111-16.966,46.427-36.738,54.042c-15.456,5.953-30.237,5.208-46.383,5.419c-4.862,0.064-9.357,1.284-14.179,0.094
				c-6.221-1.536-12.426-5.205-17.889-8.46c-19.915-11.864-41.643-34.741-24.795-58.221c1.988-2.771,4.393-5.219,6.917-7.513
				c15.973-14.519,37.267-23.049,58.846-23.575C581.747,209.17,583.174,209.17,584.6,209.205z"/>
		</g>
		<g>
			<path fill="#A15542" d="M967.884,1070.355c0.541,8.775,1.469,17.82,4.484,25.977c4.484-0.387,8.853-1.353,12.834-1.972
				c8.659-5.296,13.065-11.211,17.125-17.512c17.086-26.673,30.268-55.163,38.695-85.779c3.904-14.303,7.654-28.645,8.62-43.527
				c0.696-10.553,0.464-21.068-2.667-31.235c-0.426-1.353-0.889-2.628-1.392-3.866c-5.257-2.435-10.476-3.982-15.076-4.291
				c-15.192-1.005-29.727,8.195-38.695,20.526c-8.969,12.332-13.221,27.408-16.429,42.329
				C968.464,1003.557,965.913,1037.11,967.884,1070.355z"/>
		</g>
		<g>
			<path fill="#661B1B" d="M797.447,1120.183c0.387,6.765,1.044,13.723,2.706,20.295c1.392-0.657,2.745-1.391,4.059-2.203
				c17.395-10.476,31.003-24.238,39.352-43.102c13.723-30.964,21.3-63.088,19.251-97.183c-0.503-8.118-2.242-15.927-4.6-23.58
				c-1.739-5.644-4.213-10.94-7.615-15.772c-11.597,2.358-22.15,10.128-29.225,19.87c-8.968,12.331-13.259,27.407-16.429,42.29
				C797.988,1053.385,795.476,1086.9,797.447,1120.183z"/>
		</g>
		<g>
			<g>
				<path fill="#EBAE26" d="M285.42,567.699c6.6,62.09,18.887,123.198,36.655,183.051c-2.129-0.866-4.259-1.733-6.388-2.599
					c11.011-5.038,170.607-63.263,181.617-68.301c5.054-2.312,9.479,5.182,4.39,7.51c-11.011,5.038-170.607,63.263-181.617,68.301
					c-2.557,1.17-5.528,0.298-6.388-2.599c-17.992-60.607-30.284-122.501-36.966-185.363
					C276.132,562.139,284.834,562.181,285.42,567.699L285.42,567.699z"/>
			</g>
		</g>
		<g>
			<g>
				<path fill="#EBAE26" d="M459.778,482.793c34.57,58.629,62.317,120.677,83.014,185.513c0.741,2.322-0.878,4.633-3.037,5.35
					c-13.526,4.487-27.053,8.974-40.579,13.461c-5.325,1.766-7.608-6.63-2.312-8.387c13.526-4.487,27.053-8.974,40.579-13.461
					c-1.013,1.783-2.025,3.566-3.037,5.35c-20.471-64.131-47.946-125.449-82.137-183.435
					C449.419,482.351,456.934,477.97,459.778,482.793L459.778,482.793z"/>
			</g>
		</g>
		<g>
			<g>
				<path fill="#5B70A4" d="M989.138,556.603c-37.027,115.74-74.551,231.32-112.573,346.737c-1.743,5.292-10.145,3.026-8.387-2.312
					c38.022-115.417,75.546-230.997,112.573-346.737C982.45,548.98,990.851,551.25,989.138,556.603L989.138,556.603z"/>
			</g>
		</g>
		<g>
			<g>
				<g>
					<path fill="#FFFFFF" d="M959.383,541.652c-96.405-61.243-207.168-95.712-321.315-99.821c-5.581-0.201-5.607-8.9,0-8.698
						c115.629,4.162,228.034,38.962,325.705,101.009C968.484,537.135,964.126,544.665,959.383,541.652L959.383,541.652z"/>
				</g>
			</g>
			<g>
				<g>
					<path fill="#FFFFFF" d="M873.278,516.366c-61.232-23.983-124.598-41.041-189.596-51.039c-5.515-0.848-3.172-9.231,2.312-8.387
						c64.997,9.998,128.363,27.055,189.596,51.039C880.744,509.998,878.5,518.412,873.278,516.366L873.278,516.366z"/>
				</g>
			</g>
		</g>
		<g>
			<g>
				<g>
					<path fill="#5B70A4" d="M869.458,594.211c-69.361-22.058-139.245-42.368-209.624-60.921c-5.408-1.426-3.114-9.818,2.312-8.387
						c70.379,18.553,140.263,38.863,209.624,60.921C877.085,587.514,874.814,595.914,869.458,594.211L869.458,594.211z"/>
				</g>
			</g>
			<g>
				<g>
					<path fill="#5B70A4" d="M820.233,619.691c-34.665-11.246-69.331-22.492-103.996-33.738c-5.302-1.72-3.034-10.121,2.312-8.387
						c34.665,11.246,69.331,22.492,103.996,33.738C827.848,613.024,825.579,621.425,820.233,619.691L820.233,619.691z"/>
				</g>
			</g>
			<g>
				<g>
					<path fill="#5B70A4" d="M781.062,634.772c-20.263-4.081-40.118-9.481-59.657-16.226c-5.259-1.816-2.999-10.22,2.312-8.387
						c19.539,6.745,39.393,12.145,59.657,16.226C788.857,627.489,786.537,635.875,781.062,634.772L781.062,634.772z"/>
				</g>
			</g>
		</g>
		<g>
			<g>
				<g>
					<path fill="#661B1B" d="M779.194,960.773c-11.907,30.797-19.613,62.626-23.238,95.437c-0.308,2.789,4.061,2.767,4.366,0
						c3.581-32.42,11.323-63.862,23.082-94.277C784.419,959.311,780.199,958.175,779.194,960.773L779.194,960.773z"/>
				</g>
			</g>
			<g>
				<g>
					<path fill="#661B1B" d="M704.608,705.219c-8.549,5.362-17.099,10.723-25.648,16.085c-2.375,1.49-0.186,5.269,2.204,3.77
						c8.549-5.362,17.099-10.723,25.648-16.085C709.187,707.5,706.998,703.72,704.608,705.219L704.608,705.219z"/>
				</g>
			</g>
			<g>
				<g>
					<path fill="#661B1B" d="M689.472,678.833c-7.862,5.068-15.088,10.946-21.63,17.633c-1.966,2.01,1.118,5.1,3.088,3.088
						c6.286-6.425,13.19-12.079,20.746-16.95C694.03,681.086,691.844,677.304,689.472,678.833L689.472,678.833z"/>
				</g>
			</g>
		</g>
		<g>
			<g>
				<g>
					<path fill="#AD6A5C" d="M534.535,91.73c-6.743,9.491-11.444,19.975-14.071,31.313c-0.634,2.734,3.575,3.902,4.211,1.161
						c2.554-11.02,7.083-21.053,13.631-30.27C539.936,91.639,536.151,89.456,534.535,91.73L534.535,91.73z"/>
				</g>
			</g>
			<g>
				<g>
					<path fill="#AD6A5C" d="M517.018,93.21c-2.709,6.4-4.392,12.946-5.073,19.863c-0.275,2.794,4.094,2.775,4.366,0
						c0.599-6.095,2.089-12.017,4.477-17.66C521.871,92.856,518.111,90.628,517.018,93.21L517.018,93.21z"/>
				</g>
			</g>
			<g>
				<g>
					<path fill="#AD6A5C" d="M481.442,98.008c-6.239,9.221-7.482,20.626-3.281,30.951c1.045,2.569,5.271,1.445,4.21-1.161
						c-3.805-9.351-2.83-19.203,2.841-27.586C486.791,97.879,483.01,95.691,481.442,98.008L481.442,98.008z"/>
				</g>
			</g>
		</g>
		<g>
			<path fill="#292927" d="M608.119,248.152c-4.683,3.195-10.061,5.248-15.538,6.711c-1.147,0.306-2.322,0.59-3.507,0.518
				c-1.203-0.073-2.351-0.509-3.477-0.941c-3.376-1.293-6.751-2.586-10.127-3.88c-6.475-2.481-13.333-5.25-17.331-10.915
				c-0.992-1.405-1.797-3.195-1.198-4.808c0.482-1.296,1.747-2.12,2.991-2.723c3.171-1.534,6.685-2.221,10.183-2.638
				c11.585-1.381,23.697-1.653,35.086,1.404c2.116,0.568,4.198,1.263,6.227,2.087c1.836,0.746,3.748,1.705,4.695,3.446
				C618.621,241.006,611.126,246.1,608.119,248.152z"/>
		</g>
		<g>
			
				<ellipse transform="matrix(0.8937 -0.4487 0.4487 0.8937 -43.3044 235.5206)" fill="#292927" cx="475.33" cy="209.139" rx="8.277" ry="11.583"/>
		</g>
		<g>
			
				<ellipse transform="matrix(0.8937 -0.4487 0.4487 0.8937 -22.0326 309.0382)" fill="#292927" cx="641.098" cy="201.011" rx="8.277" ry="11.583"/>
		</g>
		<g>
			<path fill="#1C1F28" d="M566.75,273.257c-2.561,0-5.094-0.432-7.459-1.319c-7.374-2.772-12.667-9.745-13.17-17.358
				c-0.065-1.001,0.694-1.868,1.697-1.936c0.952-0.082,1.868,0.691,1.936,1.697c0.404,6.112,4.853,11.948,10.817,14.191
				c5.822,2.183,12.906,1.043,18.069-2.894c5.015-3.829,8.167-10.08,8.437-16.721l0.262-6.524l3.15,5.72
				c4.298,7.809,9.06,13.17,14.555,16.391c6.661,3.895,14.597,4.275,20.232,0.958c3.775-2.22,6.911-6.183,9.577-12.116
				c0.415-0.918,1.484-1.316,2.408-0.913c0.915,0.412,1.325,1.49,0.912,2.408c-2.988,6.641-6.604,11.141-11.055,13.759
				c-6.746,3.966-16.127,3.596-23.91-0.958c-4.941-2.891-9.302-7.272-13.242-13.315c-1.39,5.671-4.611,10.763-9.12,14.205
				C576.793,271.622,571.728,273.257,566.75,273.257z"/>
		</g>
		<g>
			<path fill="#FFA1A1" d="M700.118,242.362c0.001,2.171-0.492,4.395-1.743,6.169c-1.457,2.066-3.786,3.332-6.122,4.3
				c-11.916,4.935-25.535,3.591-37.309-1.072c-8.867-3.511-20.659-11.077-11.594-20.828
				C656.258,217.047,700.107,217.507,700.118,242.362z"/>
		</g>
		<g>
			<path fill="#FFA1A1" d="M453.623,252.493c-0.001,2.171,0.492,4.395,1.743,6.169c1.457,2.066,3.786,3.332,6.122,4.3
				c11.916,4.935,25.535,3.591,37.309-1.072c8.867-3.511,20.659-11.077,11.594-20.828
				C497.483,227.178,453.634,227.638,453.623,252.493z"/>
		</g>
	</g>
</g>
</svg>
